<?xml version="1.0" standalone="no"?>
<!DOCTYPE svg PUBLIC "-//W3C//DTD SVG 20010904//EN"
 "http://www.w3.org/TR/2001/REC-SVG-20010904/DTD/svg10.dtd">
<svg version="1.0" xmlns="http://www.w3.org/2000/svg"
 width="958.000000pt" height="1949.000000pt" viewBox="0 0 958.000000 1949.000000"
 preserveAspectRatio="xMidYMid meet">

<g transform="translate(0.000000,1949.000000) scale(0.100000,-0.100000)"
fill="#000000" stroke="none">
<path d="M1384 19475 c-488 -72 -925 -388 -1148 -833 -68 -135 -92 -205 -138
-402 l-23 -95 -3 -1312 -2 -1312 -28 -3 c-35 -4 -35 -22 1 -26 l27 -3 0 -315
0 -314 -25 0 c-15 0 -25 -6 -25 -14 0 -8 -6 -17 -12 -19 -7 -3 4 -6 25 -6 l37
-1 0 -345 0 -345 -24 0 c-31 0 -36 -8 -29 -42 4 -23 9 -27 29 -22 l24 6 0
-677 0 -677 -25 6 c-18 5 -25 2 -25 -8 0 -8 -3 -21 -6 -30 -5 -13 1 -16 25
-16 l31 0 0 -205 0 -205 -23 0 c-31 0 -35 -5 -29 -35 3 -18 11 -25 28 -25 l24
0 0 -675 0 -675 -25 0 c-19 0 -25 -5 -25 -23 0 -13 -5 -28 -12 -35 -9 -9 -3
-12 27 -12 l38 0 -5 -3782 c-2 -2081 -2 -4204 2 -4718 6 -921 7 -936 29 -1030
91 -389 267 -681 543 -901 249 -198 522 -309 833 -339 150 -14 6472 -14 6616
0 160 16 292 47 429 101 399 159 706 464 865 859 61 153 85 248 105 425 6 59
10 1759 10 5008 l0 4917 24 0 c30 0 37 9 29 39 -4 16 -11 21 -24 18 -11 -3
-19 2 -23 17 -10 35 -6 2130 3 2145 5 8 16 11 24 8 10 -4 17 2 21 16 9 34 8
35 -21 39 l-28 3 -5 2260 c-6 2525 0 2324 -76 2555 -112 338 -332 627 -628
821 -126 83 -308 165 -442 199 -205 53 -20 50 -3580 49 -2680 -1 -3316 -4
-3390 -14z m6724 -411 c462 -94 814 -424 940 -881 l27 -98 3 -8280 c3 -7695 2
-8287 -14 -8375 -22 -128 -55 -224 -116 -342 -159 -311 -431 -524 -788 -620
l-85 -23 -3235 -3 c-2432 -2 -3257 0 -3325 9 -174 22 -336 83 -494 186 -124
79 -290 251 -362 373 -94 159 -148 313 -168 480 -8 58 -11 2615 -11 8280 0
7062 2 8208 14 8290 76 499 440 886 941 1000 76 17 229 18 3338 19 2924 1
3266 -1 3335 -15z"/>
<path d="M3789 18776 c-103 -28 -190 -103 -237 -205 -23 -48 -27 -70 -27 -151
0 -88 3 -101 32 -161 39 -79 102 -140 181 -177 l57 -27 975 0 975 0 57 27 c79
37 142 98 181 177 29 60 32 74 32 161 0 87 -3 101 -32 161 -39 79 -102 140
-181 177 l-57 27 -955 2 c-735 1 -966 -1 -1001 -11z"/>
</g>
</svg>
